<svg width="244" height="91" viewBox="0 0 244 91" fill="none" xmlns="http://www.w3.org/2000/svg">
<rect y="21" width="24.5902" height="50" fill="url(#paint0_linear_153_2)"/>
<rect y="21" width="24.5902" height="50" fill="#F5F5F5" fill-opacity="0.4"/>
<ellipse cx="25.4095" cy="46" rx="24.5902" ry="25" fill="url(#paint1_linear_153_2)"/>
<path d="M70.312 65V23.144H81.512C85.7787 23.144 89.4267 23.912 92.456 25.448C95.4853 26.984 97.8107 29.288 99.432 32.36C101.053 35.432 101.864 39.272 101.864 43.88C101.864 48.488 101.053 52.3707 99.432 55.528C97.8533 58.6427 95.5707 61.0107 92.584 62.632C89.5973 64.2107 86.0347 65 81.896 65H70.312ZM77.736 58.984H81C83.816 58.984 86.2053 58.4507 88.168 57.384C90.1733 56.2747 91.688 54.6107 92.712 52.392C93.736 50.1733 94.248 47.336 94.248 43.88C94.248 40.4667 93.736 37.672 92.712 35.496C91.688 33.32 90.1733 31.72 88.168 30.696C86.2053 29.672 83.816 29.16 81 29.16H77.736V58.984ZM109.672 65V33.576H117.032V65H109.672ZM113.32 28.072C112.04 28.072 110.973 27.688 110.12 26.92C109.309 26.152 108.904 25.128 108.904 23.848C108.904 22.568 109.309 21.5653 110.12 20.84C110.973 20.072 112.04 19.688 113.32 19.688C114.643 19.688 115.709 20.072 116.52 20.84C117.331 21.5653 117.736 22.568 117.736 23.848C117.736 25.128 117.331 26.152 116.52 26.92C115.709 27.688 114.643 28.072 113.32 28.072ZM137.366 78.888C134.849 78.888 132.609 78.5893 130.646 77.992C128.683 77.3947 127.126 76.4773 125.974 75.24C124.865 74.0453 124.31 72.5307 124.31 70.696C124.31 69.3733 124.694 68.136 125.462 66.984C126.273 65.8747 127.382 64.872 128.79 63.976V63.72C128.022 63.208 127.361 62.5253 126.806 61.672C126.251 60.8187 125.974 59.752 125.974 58.472C125.974 57.2773 126.315 56.168 126.998 55.144C127.723 54.12 128.534 53.288 129.43 52.648V52.392C128.363 51.5813 127.403 50.4507 126.55 49C125.739 47.5493 125.334 45.9067 125.334 44.072C125.334 41.6827 125.91 39.656 127.062 37.992C128.214 36.2853 129.729 35.0053 131.606 34.152C133.483 33.256 135.531 32.808 137.75 32.808C138.603 32.808 139.435 32.872 140.246 33C141.057 33.128 141.761 33.32 142.358 33.576H153.622V39.016H147.734V39.272C148.331 39.912 148.801 40.6587 149.142 41.512C149.483 42.3227 149.654 43.2827 149.654 44.392C149.654 46.696 149.121 48.6373 148.054 50.216C146.987 51.7947 145.558 52.9893 143.766 53.8C141.974 54.6107 139.969 55.016 137.75 55.016C137.067 55.016 136.363 54.952 135.638 54.824C134.913 54.696 134.187 54.4827 133.462 54.184C133.035 54.6107 132.673 55.0373 132.374 55.464C132.075 55.8907 131.926 56.4667 131.926 57.192C131.926 58.088 132.31 58.792 133.078 59.304C133.846 59.816 135.169 60.072 137.046 60.072H142.614C146.411 60.072 149.27 60.6907 151.19 61.928C153.153 63.1227 154.134 65.0853 154.134 67.816C154.134 69.864 153.451 71.72 152.086 73.384C150.721 75.0907 148.779 76.4347 146.262 77.416C143.745 78.3973 140.779 78.888 137.366 78.888ZM137.75 50.408C138.731 50.408 139.627 50.1733 140.438 49.704C141.291 49.192 141.953 48.4667 142.422 47.528C142.934 46.5467 143.19 45.3947 143.19 44.072C143.19 42.0667 142.657 40.5307 141.59 39.464C140.566 38.3973 139.286 37.864 137.75 37.864C136.214 37.864 134.913 38.3973 133.846 39.464C132.779 40.5307 132.246 42.0667 132.246 44.072C132.246 45.3947 132.502 46.5467 133.014 47.528C133.526 48.4667 134.187 49.192 134.998 49.704C135.809 50.1733 136.726 50.408 137.75 50.408ZM138.518 74.088C140.182 74.088 141.654 73.8533 142.934 73.384C144.214 72.9573 145.217 72.3387 145.942 71.528C146.667 70.76 147.03 69.928 147.03 69.032C147.03 67.7947 146.539 66.9627 145.558 66.536C144.619 66.1093 143.254 65.896 141.462 65.896H137.174C136.321 65.896 135.553 65.8533 134.87 65.768C134.187 65.6827 133.526 65.576 132.886 65.448C132.075 66.088 131.457 66.7493 131.03 67.432C130.646 68.1147 130.454 68.84 130.454 69.608C130.454 71.016 131.179 72.104 132.63 72.872C134.081 73.6827 136.043 74.088 138.518 74.088ZM172.176 65.768C169.232 65.768 166.565 65.128 164.176 63.848C161.829 62.5253 159.973 60.648 158.608 58.216C157.243 55.7413 156.56 52.7547 156.56 49.256C156.56 45.8427 157.264 42.92 158.672 40.488C160.08 38.0133 161.893 36.1147 164.112 34.792C166.331 33.4693 168.677 32.808 171.152 32.808C174.011 32.808 176.4 33.448 178.32 34.728C180.24 36.008 181.669 37.7787 182.608 40.04C183.589 42.2587 184.08 44.8187 184.08 47.72C184.08 48.4027 184.037 49.064 183.952 49.704C183.909 50.344 183.824 50.9627 183.696 51.56H162.064V45.928H177.552C177.552 43.6667 177.04 41.896 176.016 40.616C174.992 39.2933 173.413 38.632 171.28 38.632C170.085 38.632 168.912 38.952 167.76 39.592C166.651 40.232 165.712 41.32 164.944 42.856C164.219 44.392 163.856 46.5253 163.856 49.256C163.856 51.7307 164.283 53.7573 165.136 55.336C165.989 56.872 167.12 58.024 168.528 58.792C169.936 59.5173 171.451 59.88 173.072 59.88C174.437 59.88 175.717 59.688 176.912 59.304C178.149 58.92 179.301 58.3867 180.368 57.704L182.928 62.44C181.477 63.464 179.813 64.2747 177.936 64.872C176.101 65.4693 174.181 65.768 172.176 65.768ZM201.557 65.64C197.93 65.64 195.349 64.5947 193.812 62.504C192.319 60.3707 191.573 57.6187 191.573 54.248V39.4H187.093V33.896L191.957 33.576L192.853 23.72H198.997V33.576H206.997V39.4H198.997V54.248C198.997 56.0827 199.359 57.4693 200.085 58.408C200.81 59.304 201.919 59.752 203.413 59.752C203.967 59.752 204.522 59.7093 205.077 59.624C205.631 59.5387 206.165 59.368 206.677 59.112L208.021 64.296C207.21 64.68 206.25 65 205.141 65.256C204.031 65.512 202.837 65.64 201.557 65.64ZM225.474 65.768C222.871 65.768 220.439 65.128 218.178 63.848C215.916 62.5253 214.082 60.648 212.674 58.216C211.266 55.7413 210.562 52.776 210.562 49.32C210.562 45.8213 211.266 42.856 212.674 40.424C214.082 37.9493 215.916 36.072 218.178 34.792C220.439 33.4693 222.871 32.808 225.474 32.808C228.119 32.808 230.572 33.4693 232.834 34.792C235.095 36.072 236.93 37.9493 238.338 40.424C239.746 42.856 240.45 45.8213 240.45 49.32C240.45 52.776 239.746 55.7413 238.338 58.216C236.93 60.648 235.095 62.5253 232.834 63.848C230.572 65.128 228.119 65.768 225.474 65.768ZM225.474 59.752C227.01 59.752 228.332 59.3253 229.442 58.472C230.551 57.6187 231.404 56.4027 232.002 54.824C232.599 53.2453 232.898 51.4107 232.898 49.32C232.898 47.2293 232.599 45.3947 232.002 43.816C231.404 42.2373 230.551 41.0213 229.442 40.168C228.332 39.272 227.01 38.824 225.474 38.824C223.938 38.824 222.615 39.272 221.506 40.168C220.439 41.0213 219.607 42.2373 219.01 43.816C218.412 45.3947 218.114 47.2293 218.114 49.32C218.114 51.4107 218.412 53.2453 219.01 54.824C219.607 56.4027 220.439 57.6187 221.506 58.472C222.615 59.3253 223.938 59.752 225.474 59.752Z" fill="black"/>
<defs>
<linearGradient id="paint0_linear_153_2" x1="12.2951" y1="21" x2="12.2951" y2="71" gradientUnits="userSpaceOnUse">
<stop stop-color="#64CACC"/>
<stop offset="0.29502" stop-color="#B1BB8A"/>
<stop offset="0.5" stop-color="#FEAC47"/>
<stop offset="0.75" stop-color="#FE8397"/>
<stop offset="0.95002" stop-color="#FC6ACB"/>
</linearGradient>
<linearGradient id="paint1_linear_153_2" x1="25.4095" y1="21" x2="25.4095" y2="71" gradientUnits="userSpaceOnUse">
<stop stop-color="#64CACC"/>
<stop offset="0.29502" stop-color="#B1BB8A"/>
<stop offset="0.5" stop-color="#FEAC47"/>
<stop offset="0.75" stop-color="#FE8397"/>
<stop offset="0.95002" stop-color="#FC6ACB"/>
</linearGradient>
</defs>
</svg>
